HIERARCHY
ROOT Hips
{
	OFFSET -0.001795 -0.223333 0.028219
	CHANNELS 6 Xposition Yposition Zposition Zrotation Yrotation Xrotation 
	JOINT LeftUpLeg
	{
		OFFSET 0.069520 -0.091406 -0.006815
		CHANNELS 3 Zrotation Yrotation Xrotation
		JOINT LeftLeg
		{
			OFFSET 0.034277 -0.375199 -0.004496
			CHANNELS 3 Zrotation Yrotation Xrotation
			JOINT LeftFoot
			{
				OFFSET -0.013596 -0.397961 -0.043693
				CHANNELS 3 Zrotation Yrotation Xrotation
				JOINT LeftToe
				{
					OFFSET 0.026358 -0.055791 0.119288
					CHANNELS 3 Zrotation Yrotation Xrotation
					End Site
					{
						OFFSET 0.000000 0.000000 0.000000
					}
				}
			}
		}
	}
	JOINT RightUpLeg
	{
		OFFSET -0.067670 -0.090522 -0.004320
		CHANNELS 3 Zrotation Yrotation Xrotation
		JOINT RightLeg
		{
			OFFSET -0.038290 -0.382569 -0.008850
			CHANNELS 3 Zrotation Yrotation Xrotation
			JOINT RightFoot
			{
				OFFSET 0.015774 -0.398415 -0.042312
				CHANNELS 3 Zrotation Yrotation Xrotation
				JOINT RightToe
				{
					OFFSET -0.025372 -0.048144 0.123348
					CHANNELS 3 Zrotation Yrotation Xrotation
					End Site
					{
						OFFSET 0.000000 0.000000 0.000000
					}
				}
			}
		}
	}
	JOINT Spine
	{
		OFFSET -0.002533 0.108963 -0.026696
		CHANNELS 3 Zrotation Yrotation Xrotation
		JOINT Spine1
		{
			OFFSET 0.005487 0.135180 0.001092
			CHANNELS 3 Zrotation Yrotation Xrotation
			JOINT Spine2
			{
				OFFSET 0.001457 0.052922 0.025425
				CHANNELS 3 Zrotation Yrotation Xrotation
				JOINT Neck
				{
					OFFSET -0.002778 0.213870 -0.042857
					CHANNELS 3 Zrotation Yrotation Xrotation
					JOINT Head
					{
						OFFSET 0.005152 0.064970 0.051349
						CHANNELS 3 Zrotation Yrotation Xrotation
						End Site
						{
							OFFSET 0.000000 0.000000 0.000000
						}
					}
				}
				JOINT LeftShoulder
				{
					OFFSET 0.078845 0.121749 -0.034090
					CHANNELS 3 Zrotation Yrotation Xrotation
					JOINT LeftArm
					{
						OFFSET 0.090977 0.030469 -0.008868
						CHANNELS 3 Zrotation Yrotation Xrotation
						JOINT LeftForeArm
						{
							OFFSET 0.259612 -0.012772 -0.027456
							CHANNELS 3 Zrotation Yrotation Xrotation
							JOINT LeftHand
							{
								OFFSET 0.249234 0.008986 -0.001171
								CHANNELS 3 Zrotation Yrotation Xrotation
								End Site
								{
									OFFSET 0.000000 0.000000 0.000000
								}
							}
						}
					}
				}
				JOINT RightShoulder
				{
					OFFSET -0.081759 0.118833 -0.038615
					CHANNELS 3 Zrotation Yrotation Xrotation
					JOINT RightArm
					{
						OFFSET -0.096012 0.032551 -0.009143
						CHANNELS 3 Zrotation Yrotation Xrotation
						JOINT RightForeArm
						{
							OFFSET -0.253742 -0.013329 -0.021401
							CHANNELS 3 Zrotation Yrotation Xrotation
							JOINT RightHand
							{
								OFFSET -0.255298 0.007772 -0.005559
								CHANNELS 3 Zrotation Yrotation Xrotation
								End Site
								{
									OFFSET 0.000000 0.000000 0.000000
								}
							}
						}
					}
				}
			}
		}
	}
}
MOTION
Frames: 7
Frame Time: 0.050000
0.093423 0.918196 0.522261 0.713566 5.598205 -4.665007 16.337044 -0.077511 -4.576926 -8.967663 1.760922 38.831834 4.786054 14.827356 26.004263 0.000000 0.000000 0.000000 -5.123768 0.680952 -13.746630 6.690044 -1.638206 23.374912 -6.073714 -15.394613 5.208995 0.000000 0.000000 0.000000 0.871084 -2.229798 33.804627 7.492138 -0.766233 -29.152546 0.483176 -0.963006 19.095751 -8.186826 5.842222 -41.226087 0.000000 0.000000 0.000000 -39.609427 2.549069 -6.528214 -32.721073 -12.165577 -1.754468 -11.083312 -25.376230 3.456662 0.000000 0.000000 0.000000 20.805053 8.749647 3.981152 34.291126 11.225407 -1.852921 2.255419 21.590761 1.123365 0.000000 0.000000 0.000000 
0.095549 0.922603 0.539864 1.259821 5.148303 -4.730302 15.669361 0.040791 -6.902514 -9.074889 1.865660 36.408613 5.541546 13.994951 12.818715 0.000000 0.000000 0.000000 -5.458869 0.563814 -11.746763 6.208142 -1.381880 22.120855 -5.784351 -14.802006 4.980858 0.000000 0.000000 0.000000 0.744522 -2.142321 33.972949 7.554818 -0.835776 -28.458363 0.383693 0.126451 18.487822 -7.916218 5.866147 -40.380060 0.000000 0.000000 0.000000 -40.251304 2.190713 -6.857442 -31.442160 -11.557725 -1.671397 -11.228981 -25.192904 3.422028 0.000000 0.000000 0.000000 20.376902 9.642113 4.667321 32.895720 12.030580 -1.629187 2.847140 21.661820 1.229068 0.000000 0.000000 0.000000 
0.101180 0.926688 0.556806 1.421982 4.588211 -4.340835 15.366629 0.135979 -9.323942 -8.866524 1.807702 32.290562 5.187849 12.002258 5.293330 0.000000 0.000000 0.000000 -5.873250 0.485422 -10.469610 6.107955 -1.266118 21.032506 -5.435836 -14.119725 5.277243 0.000000 0.000000 0.000000 0.865491 -2.121769 34.031228 7.435981 -0.778917 -28.819869 0.732673 0.556691 19.046443 -8.280319 6.027714 -40.450275 0.000000 0.000000 0.000000 -40.164337 1.840225 -6.597486 -31.558226 -10.801271 -1.878786 -11.889192 -25.715462 3.648972 0.000000 0.000000 0.000000 20.801930 9.825570 4.846890 31.088339 13.085582 -1.408459 2.446520 21.288333 1.124443 0.000000 0.000000 0.000000 
0.110393 0.930412 0.573693 1.695654 4.441751 -3.821346 15.207870 0.173255 -10.963977 -8.703155 1.671079 26.938390 4.528848 10.989381 5.927229 0.000000 0.000000 0.000000 -6.562048 0.378387 -8.972225 5.818063 -1.114332 19.447950 -5.227631 -13.734089 5.623979 0.000000 0.000000 0.000000 0.842533 -2.031299 33.177949 6.899279 -0.755480 -27.565372 1.117142 1.115688 18.113149 -8.014719 5.976008 -39.740439 0.000000 0.000000 0.000000 -39.911956 1.348867 -6.443982 -31.372585 -9.668629 -2.002202 -12.042809 -26.154863 3.729712 0.000000 0.000000 0.000000 20.740103 9.651441 4.840484 30.457338 13.626627 -1.245995 2.581828 21.679306 1.179099 0.000000 0.000000 0.000000 
0.123084 0.931989 0.590781 1.792838 3.946417 -3.610469 15.167461 0.213545 -11.667262 -7.822086 1.338322 21.887089 3.636314 9.727884 7.188266 0.000000 0.000000 0.000000 -7.487974 0.262396 -7.048394 5.824353 -1.033540 17.631777 -4.886714 -13.033275 5.516515 0.000000 0.000000 0.000000 0.603443 -1.904874 33.083218 7.039700 -0.770828 -27.861488 1.143403 1.308417 18.513126 -7.642030 5.827567 -39.712598 0.000000 0.000000 0.000000 -39.157564 2.116327 -6.848660 -31.671641 -8.908260 -2.235230 -13.315465 -26.982839 4.163076 0.000000 0.000000 0.000000 20.811138 8.998469 4.472985 29.614783 14.093109 -1.165733 2.299131 22.841185 1.200164 0.000000 0.000000 0.000000 
0.139056 0.932098 0.608320 1.571946 3.865593 -3.662158 15.450911 0.250680 -11.910457 -6.742749 0.958043 15.426362 1.916576 7.408456 9.369440 0.000000 0.000000 0.000000 -8.329283 0.160772 -4.931770 5.899642 -1.009222 16.123078 -4.695960 -12.649092 5.548040 0.000000 0.000000 0.000000 0.169856 -1.722063 32.323584 6.940185 -0.791096 -27.358298 1.511270 1.614022 18.589453 -7.729682 5.939095 -38.707661 0.000000 0.000000 0.000000 -38.654499 2.446032 -7.108541 -31.925789 -7.576681 -2.547535 -13.952686 -27.480947 4.394680 0.000000 0.000000 0.000000 20.538385 8.671959 4.351718 30.224311 14.097204 -1.200373 2.649514 24.331401 1.379057 0.000000 0.000000 0.000000 
0.157677 0.930118 0.626166 1.199291 3.564781 -3.755201 15.729180 0.275410 -11.454577 -5.971685 0.733560 8.917555 0.640880 6.246968 12.424859 0.000000 0.000000 0.000000 -9.031836 0.097341 -2.970908 5.673553 -0.908365 14.945658 -4.482764 -12.177110 5.282982 0.000000 0.000000 0.000000 -0.307285 -1.521778 31.607914 7.026961 -0.896180 -26.409611 1.751278 1.928325 18.229494 -7.373720 5.794930 -38.953292 0.000000 0.000000 0.000000 -38.095192 3.361014 -7.788288 -32.038843 -6.984947 -2.645002 -15.161370 -28.030685 4.777708 0.000000 0.000000 0.000000 20.558181 8.611621 4.338580 29.371656 13.677566 -1.256498 4.254365 26.143598 1.834414 0.000000 0.000000 0.000000 
